<svg width="24" height="25" viewBox="0 0 24 25" fill="none" xmlns="http://www.w3.org/2000/svg">
<rect y="0.407959" width="24.0079" height="24.0079" rx="12.004" fill="#393939"/>
<mask id="path-2-inside-1_140_2" fill="white">
<path d="M12.4581 6.01379C13.3518 6.01379 14.1439 6.44169 14.6466 7.10168C14.8041 7.07368 14.9664 7.05774 15.132 7.05774C16.6516 7.058 17.8839 8.28997 17.8839 9.80969C17.8839 10.188 17.8062 10.548 17.6681 10.8761C18.4113 11.3302 18.9092 12.1464 18.9093 13.0812C18.9093 14.4847 17.7907 15.6246 16.3966 15.6632V18.8097C14.9125 16.1465 12.1027 14.4953 9.05383 14.4952H7.83997V14.4835C6.32506 14.4777 5.09875 13.2488 5.09875 11.7325C5.09891 10.5218 5.88141 9.49507 6.9679 9.12708C7.10612 7.7367 8.27947 6.65071 9.70618 6.65051C10.0009 6.65051 10.2847 6.69853 10.5509 6.7843C11.0456 6.30793 11.7171 6.0139 12.4581 6.01379Z"/>
</mask>
<path d="M12.4581 6.01379L12.4581 4.95944L12.458 4.95944L12.4581 6.01379ZM14.6466 7.10168L13.8079 7.74056L14.1977 8.25242L14.8312 8.13975L14.6466 7.10168ZM15.132 7.05774L15.1321 6.00338H15.132V7.05774ZM17.8839 9.80969L18.9383 9.8097V9.80969H17.8839ZM17.6681 10.8761L16.6963 10.4671L16.3445 11.303L17.1184 11.7758L17.6681 10.8761ZM18.9093 13.0812L19.9637 13.0812L19.9637 13.0811L18.9093 13.0812ZM16.3966 15.6632L16.3674 14.6093L15.3423 14.6377V15.6632H16.3966ZM16.3966 18.8097L15.4756 19.3229L17.451 22.8678V18.8097H16.3966ZM9.05383 14.4952L9.05387 13.4409H9.05383V14.4952ZM7.83997 14.4952H6.78561V15.5496H7.83997V14.4952ZM7.83997 14.4835H8.89432V13.4332L7.84402 13.4292L7.83997 14.4835ZM5.09875 11.7325L4.0444 11.7324V11.7325H5.09875ZM6.9679 9.12708L7.30613 10.1257L7.94984 9.90768L8.01708 9.23138L6.9679 9.12708ZM9.70618 6.65051L9.70618 5.59616L9.70603 5.59616L9.70618 6.65051ZM10.5509 6.7843L10.2275 7.78784L10.8279 7.98129L11.2822 7.54378L10.5509 6.7843ZM12.4581 6.01379V7.06815C13.0063 7.06815 13.4944 7.32907 13.8079 7.74056L14.6466 7.10168L15.4854 6.46281C14.7934 5.55431 13.6973 4.95944 12.4581 4.95944V6.01379ZM14.6466 7.10168L14.8312 8.13975C14.9337 8.12152 15.0341 8.11209 15.132 8.11209V7.05774V6.00338C14.8988 6.00338 14.6745 6.02583 14.462 6.06362L14.6466 7.10168ZM15.132 7.05774L15.1318 8.11209C16.0695 8.11225 16.8296 8.87245 16.8296 9.80969H17.8839H18.9383C18.9383 7.70748 17.2338 6.00374 15.1321 6.00338L15.132 7.05774ZM17.8839 9.80969L16.8296 9.80968C16.8296 10.0422 16.782 10.2635 16.6963 10.4671L17.6681 10.8761L18.6399 11.2851C18.8304 10.8326 18.9383 10.3338 18.9383 9.8097L17.8839 9.80969ZM17.6681 10.8761L17.1184 11.7758C17.5636 12.0478 17.8549 12.5315 17.8549 13.0813L18.9093 13.0812L19.9637 13.0811C19.9636 11.7614 19.2591 10.6126 18.2178 9.97637L17.6681 10.8761ZM18.9093 13.0812H17.8549C17.8549 13.9107 17.1938 14.5863 16.3674 14.6093L16.3966 15.6632L16.4258 16.7172C18.3877 16.6628 19.9637 15.0586 19.9637 13.0812H18.9093ZM16.3966 15.6632H15.3423V18.8097H16.3966H17.451V15.6632H16.3966ZM16.3966 18.8097L17.3176 18.2965C15.6474 15.2992 12.4851 13.441 9.05387 13.4409L9.05383 14.4952L9.0538 15.5496C11.7202 15.5497 14.1776 16.9937 15.4756 19.3229L16.3966 18.8097ZM9.05383 14.4952V13.4409H7.83997V14.4952V15.5496H9.05383V14.4952ZM7.83997 14.4952H8.89432V14.4835H7.83997H6.78561V14.4952H7.83997ZM7.83997 14.4835L7.84402 13.4292C6.90909 13.4256 6.15311 12.6674 6.15311 11.7325H5.09875H4.0444C4.0444 13.8303 5.74102 15.5298 7.83591 15.5379L7.83997 14.4835ZM5.09875 11.7325L6.15311 11.7327C6.1532 10.9883 6.63378 10.3534 7.30613 10.1257L6.9679 9.12708L6.62966 8.12845C5.12905 8.6367 4.04461 10.0553 4.0444 11.7324L5.09875 11.7325ZM6.9679 9.12708L8.01708 9.23138C8.10222 8.3749 8.82678 7.70499 9.70632 7.70487L9.70618 6.65051L9.70603 5.59616C7.73216 5.59643 6.11001 7.0985 5.91871 9.02277L6.9679 9.12708ZM9.70618 6.65051V7.70487C9.88569 7.70487 10.0605 7.73403 10.2275 7.78784L10.5509 6.7843L10.8743 5.78076C10.5089 5.66302 10.1161 5.59616 9.70618 5.59616V6.65051ZM10.5509 6.7843L11.2822 7.54378C11.5895 7.24788 12.0022 7.06821 12.4583 7.06815L12.4581 6.01379L12.458 4.95944C11.432 4.95959 10.5017 5.36797 9.81956 6.02482L10.5509 6.7843Z" fill="#11F769" mask="url(#path-2-inside-1_140_2)"/>
<path d="M10.1539 11.7558C10.1539 10.4655 9.10792 9.41956 7.81763 9.41956" stroke="#11F769" stroke-width="1.07544"/>
<path d="M12.4187 10.3053C12.7129 11.4688 13.8945 12.1735 15.058 11.8793" stroke="#11F769" stroke-width="1.07544"/>
<path d="M14.3608 7.55894C15.0352 8.92102 14.4777 10.5719 13.1156 11.2463" stroke="#11F769" stroke-width="1.07544"/>
</svg>
